<svg width="16" height="16" viewBox="0 0 16 16" fill="none" xmlns="http://www.w3.org/2000/svg">
<path d="M7.99953 12.1237C11.4035 12.1237 14.3808 13.3966 16 15.296L14.2878 16C12.9697 14.6421 10.6459 13.7401 7.99953 13.7401C5.35316 13.7401 3.02934 14.6421 1.71126 16L0 15.2952C1.61924 13.3958 4.5956 12.1237 7.99953 12.1237ZM7.99953 0C9.23217 0 10.4143 0.42577 11.2859 1.18365C12.1575 1.94152 12.6472 2.96942 12.6472 4.04122V6.46595C12.6471 7.50735 12.1847 8.50852 11.3564 9.26068C10.5281 10.0128 9.39778 10.4579 8.20124 10.5031L7.99953 10.5072C6.7669 10.5072 5.58475 10.0814 4.71315 9.32353C3.84155 8.56565 3.35189 7.53775 3.35189 6.46595V4.04122C3.35195 2.99983 3.81436 1.99866 4.64269 1.24649C5.47101 0.494328 6.60129 0.0492378 7.79783 0.00404131L7.99953 0ZM7.99953 1.61649C7.28825 1.61645 6.60383 1.85276 6.08632 2.27705C5.56881 2.70135 5.25732 3.28156 5.21559 3.89897L5.21095 4.04122V6.46595C5.21025 7.09711 5.49261 7.70364 5.99804 8.15665C6.50348 8.60966 7.19214 8.87346 7.9177 8.89198C8.64326 8.9105 9.34854 8.68229 9.88367 8.25584C10.4188 7.82939 10.7416 7.23831 10.7835 6.6082L10.7881 6.46595V4.04122C10.7881 3.39814 10.4943 2.7814 9.97137 2.32668C9.4484 1.87195 8.73911 1.61649 7.99953 1.61649Z" fill="#203C71"/>
</svg>
