<svg width="25" height="25" viewBox="0 0 25 25" fill="none" xmlns="http://www.w3.org/2000/svg">
<path fill-rule="evenodd" clip-rule="evenodd" d="M17.6797 4.91C17.6797 3.58 18.7597 2.5 20.0897 2.5C21.4197 2.5 22.4997 3.58 22.4997 4.91C22.4997 6.24 21.4197 7.32 20.0897 7.32C18.7597 7.32 17.6797 6.24 17.6797 4.91ZM13.83 15.2593L16.72 11.5303L16.68 11.5503C16.84 11.3303 16.87 11.0503 16.76 10.8003C16.651 10.5503 16.41 10.3803 16.151 10.3603C15.88 10.3303 15.611 10.4503 15.45 10.6703L13.031 13.8003L10.26 11.6203C10.09 11.4903 9.89 11.4393 9.69 11.4603C9.491 11.4903 9.311 11.5993 9.19 11.7593L6.231 15.6103L6.17 15.7003C6 16.0193 6.08 16.4293 6.38 16.6503C6.52 16.7403 6.67 16.8003 6.84 16.8003C7.071 16.8103 7.29 16.6893 7.43 16.5003L9.94 13.2693L12.79 15.4103L12.88 15.4693C13.2 15.6393 13.6 15.5603 13.83 15.2593ZM15.95 4.2803C15.91 4.5303 15.89 4.7803 15.89 5.0303C15.89 7.2803 17.71 9.0993 19.95 9.0993C20.2 9.0993 20.44 9.0703 20.69 9.0303V17.0993C20.69 20.4903 18.69 22.5003 15.29 22.5003H7.901C4.5 22.5003 2.5 20.4903 2.5 17.0993V9.7003C2.5 6.3003 4.5 4.2803 7.901 4.2803H15.95Z" fill="#1D3A70"/>
</svg>
