<svg width="21" height="20" viewBox="0 0 21 20" fill="none" xmlns="http://www.w3.org/2000/svg">
<path d="M13.6257 11.32C12.5187 12.939 10.8977 13.704 9.00066 13.704C6.69666 13.704 4.72466 11.931 5.00766 9.58C5.32266 6.972 7.34766 5.85 10.7157 5.437C11.3167 5.364 11.5657 5.343 12.8627 5.247L13.0007 5.237V5.022C13.0007 3.226 11.9327 2 10.5007 2C9.06366 2 8.06066 2.747 7.44566 4.526L5.55566 3.874C6.44266 1.304 8.19366 0 10.5007 0C13.1037 0 15.0007 2.178 15.0007 5.022C15.0007 7.671 15.1637 9.778 15.4837 10.579C15.8397 11.471 15.9697 11.696 16.3677 12.192L14.8077 13.443C14.2847 12.791 14.0547 12.394 13.6267 11.321V11.32H13.6257ZM19.2577 17.245C18.9867 17.445 18.5157 17.326 18.7287 16.805C18.9937 16.157 19.2757 15.397 18.9907 15.053C18.7807 14.798 18.5237 14.671 17.9637 14.671C17.5037 14.671 17.2737 14.731 16.9687 14.751C16.7647 14.764 16.6757 14.454 16.8777 14.311C17.1422 14.1215 17.4361 13.9769 17.7477 13.883C18.8977 13.539 20.2527 13.728 20.4177 13.966C20.7827 14.496 20.2187 16.535 19.2577 17.246V17.245ZM18.0757 16.161C17.816 16.4122 17.5386 16.6445 17.2457 16.856C15.1237 18.472 12.3757 19.316 9.98766 19.316C6.14466 19.316 2.70766 17.523 0.0996635 14.521C-0.123336 14.291 0.0616636 13.955 0.322664 14.137C3.13266 16.214 6.61066 17.47 10.2117 17.47C12.4767 17.47 14.9197 16.933 17.2467 15.777C17.4087 15.701 17.5907 15.597 17.7497 15.523C18.1167 15.313 18.4397 15.829 18.0757 16.161ZM13.0107 7.241C11.7527 7.335 11.5147 7.354 10.9587 7.422C8.40666 7.735 7.16166 8.425 6.99366 9.82C6.86766 10.863 7.80366 11.704 9.00066 11.704C11.0397 11.704 12.5177 10.476 13.0227 7.241H13.0107Z" fill="#03053D"/>
</svg>
