<svg width="26" height="26" viewBox="0 0 26 26" fill="none" xmlns="http://www.w3.org/2000/svg">
<path d="M9.74998 9.0791H14.825C15.95 9.0791 16.8625 10.0916 16.8625 11.1166C16.8625 12.2416 15.95 13.1541 14.825 13.1541H9.74998V9.0791Z" stroke="#FACC15" stroke-width="1.5" stroke-miterlimit="10" stroke-linecap="round" stroke-linejoin="round"/>
<path d="M9.74998 13.1416H15.55C16.8375 13.1416 17.875 14.0541 17.875 15.1791C17.875 16.3041 16.8375 17.2166 15.55 17.2166H9.74998V13.1416Z" stroke="#FACC15" stroke-width="1.5" stroke-miterlimit="10" stroke-linecap="round" stroke-linejoin="round"/>
<path d="M13.3005 17.2043V19.2418" stroke="#FACC15" stroke-width="1.5" stroke-miterlimit="10" stroke-linecap="round" stroke-linejoin="round"/>
<path d="M10.7625 17.2041V19.2416" stroke="#FACC15" stroke-width="1.5" stroke-miterlimit="10" stroke-linecap="round" stroke-linejoin="round"/>
<path d="M13.3005 7.04175V9.07925" stroke="#FACC15" stroke-width="1.5" stroke-miterlimit="10" stroke-linecap="round" stroke-linejoin="round"/>
<path d="M10.7625 7.04175V9.07925" stroke="#FACC15" stroke-width="1.5" stroke-miterlimit="10" stroke-linecap="round" stroke-linejoin="round"/>
<path d="M11.675 9.0791H8.125" stroke="#FACC15" stroke-width="1.5" stroke-miterlimit="10" stroke-linecap="round" stroke-linejoin="round"/>
<path d="M11.675 17.2041H8.125" stroke="#FACC15" stroke-width="1.5" stroke-miterlimit="10" stroke-linecap="round" stroke-linejoin="round"/>
<path d="M13 23.8334C18.9831 23.8334 23.8333 18.9832 23.8333 13.0001C23.8333 7.017 18.9831 2.16675 13 2.16675C7.01691 2.16675 2.16666 7.017 2.16666 13.0001C2.16666 18.9832 7.01691 23.8334 13 23.8334Z" stroke="#FACC15" stroke-width="1.5" stroke-miterlimit="10"/>
</svg>
