<svg width="16" height="17" viewBox="0 0 16 17" fill="none" xmlns="http://www.w3.org/2000/svg">
<path d="M5.33333 8.5H2.66667C2.29848 8.5 2 8.79848 2 9.16667V13.1667C2 13.5349 2.29848 13.8333 2.66667 13.8333H5.33333C5.70152 13.8333 6 13.5349 6 13.1667V9.16667C6 8.79848 5.70152 8.5 5.33333 8.5Z" stroke="black" stroke-width="1.5" stroke-linecap="round" stroke-linejoin="round"/>
<path d="M9.33333 5.8335H6.66667C6.29848 5.8335 6 6.13197 6 6.50016V13.1668C6 13.535 6.29848 13.8335 6.66667 13.8335H9.33333C9.70152 13.8335 10 13.535 10 13.1668V6.50016C10 6.13197 9.70152 5.8335 9.33333 5.8335Z" stroke="black" stroke-width="1.5" stroke-linecap="round" stroke-linejoin="round"/>
<path d="M13.3333 3.16675H10.6667C10.2985 3.16675 10 3.46522 10 3.83341V13.1667C10 13.5349 10.2985 13.8334 10.6667 13.8334H13.3333C13.7015 13.8334 14 13.5349 14 13.1667V3.83341C14 3.46522 13.7015 3.16675 13.3333 3.16675Z" stroke="black" stroke-width="1.5" stroke-linecap="round" stroke-linejoin="round"/>
<path d="M2.66669 13.8335H12" stroke="black" stroke-width="1.5" stroke-linecap="round" stroke-linejoin="round"/>
</svg>
