<svg width="17" height="17" viewBox="0 0 17 17" fill="none" xmlns="http://www.w3.org/2000/svg">
<path d="M0 17C0 15.2824 0.682311 13.6352 1.89683 12.4206C3.11135 11.2061 4.7586 10.5238 6.47619 10.5238C8.19378 10.5238 9.84103 11.2061 11.0555 12.4206C12.2701 13.6352 12.9524 15.2824 12.9524 17H11.3333C11.3333 15.7118 10.8216 14.4764 9.91071 13.5655C8.99982 12.6546 7.76438 12.1429 6.47619 12.1429C5.188 12.1429 3.95256 12.6546 3.04167 13.5655C2.13078 14.4764 1.61905 15.7118 1.61905 17H0ZM6.47619 9.71429C3.79262 9.71429 1.61905 7.54071 1.61905 4.85714C1.61905 2.17357 3.79262 0 6.47619 0C9.15976 0 11.3333 2.17357 11.3333 4.85714C11.3333 7.54071 9.15976 9.71429 6.47619 9.71429ZM6.47619 8.09524C8.26524 8.09524 9.71429 6.64619 9.71429 4.85714C9.71429 3.0681 8.26524 1.61905 6.47619 1.61905C4.68714 1.61905 3.2381 3.0681 3.2381 4.85714C3.2381 6.64619 4.68714 8.09524 6.47619 8.09524ZM13.1823 11.0929C14.3199 11.6053 15.2854 12.4353 15.9627 13.4832C16.6399 14.5311 17.0001 15.7523 17 17H15.381C15.3811 16.0642 15.111 15.1482 14.6031 14.3622C14.0951 13.5763 13.371 12.9537 12.5177 12.5695L13.1815 11.0929H13.1823ZM12.6253 1.95338C13.4409 2.28957 14.1383 2.86048 14.6289 3.59366C15.1195 4.32684 15.3813 5.18924 15.381 6.07143C15.3813 7.18236 14.9662 8.25328 14.2173 9.07381C13.4684 9.89434 12.4397 10.4052 11.3333 10.506V8.87643C11.9331 8.79052 12.4896 8.51459 12.9211 8.08913C13.3525 7.66368 13.6362 7.11112 13.7305 6.51257C13.8247 5.91401 13.7246 5.301 13.4449 4.76352C13.1651 4.22605 12.7204 3.79241 12.176 3.52629L12.6253 1.95338Z" fill="#1DAB87"/>
</svg>
