<svg width="24" height="25" viewBox="0 0 24 25" fill="none" xmlns="http://www.w3.org/2000/svg">
<path d="M18 8.75879H10C8.89543 8.75879 8 9.65422 8 10.7588V18.7588C8 19.8634 8.89543 20.7588 10 20.7588H18C19.1046 20.7588 20 19.8634 20 18.7588V10.7588C20 9.65422 19.1046 8.75879 18 8.75879Z" stroke="#6B7280" stroke-width="1.5" stroke-linecap="round" stroke-linejoin="round"/>
<path d="M16 8.75879V6.75879C16 6.22836 15.7893 5.71965 15.4142 5.34458C15.0391 4.9695 14.5304 4.75879 14 4.75879H6C5.46957 4.75879 4.96086 4.9695 4.58579 5.34458C4.21071 5.71965 4 6.22836 4 6.75879V14.7588C4 15.2892 4.21071 15.7979 4.58579 16.173C4.96086 16.5481 5.46957 16.7588 6 16.7588H8" stroke="#6B7280" stroke-width="1.5" stroke-linecap="round" stroke-linejoin="round"/>
</svg>
