<svg width="25" height="25" viewBox="0 0 25 25" fill="none" xmlns="http://www.w3.org/2000/svg">
<path d="M18.25 5.5H6.25C4.59315 5.5 3.25 6.84315 3.25 8.5V16.5C3.25 18.1569 4.59315 19.5 6.25 19.5H18.25C19.9069 19.5 21.25 18.1569 21.25 16.5V8.5C21.25 6.84315 19.9069 5.5 18.25 5.5Z" fill="#1D3A70"/>
<path d="M3.25 10.5H21.25M7.25 15.5H7.26M11.25 15.5H13.25M6.25 5.5H18.25C19.9069 5.5 21.25 6.84315 21.25 8.5V16.5C21.25 18.1569 19.9069 19.5 18.25 19.5H6.25C4.59315 19.5 3.25 18.1569 3.25 16.5V8.5C3.25 6.84315 4.59315 5.5 6.25 5.5Z" stroke="white" stroke-width="1.5" stroke-linecap="round" stroke-linejoin="round"/>
</svg>
