<svg width="18" height="20" viewBox="0 0 18 20" fill="none" xmlns="http://www.w3.org/2000/svg">
<path d="M17 20.0001H1C0.734784 20.0001 0.48043 19.8947 0.292893 19.7072C0.105357 19.5196 0 19.2653 0 19.0001V1.00006C0 0.734845 0.105357 0.480491 0.292893 0.292954C0.48043 0.105418 0.734784 6.10352e-05 1 6.10352e-05H17C17.2652 6.10352e-05 17.5196 0.105418 17.7071 0.292954C17.8946 0.480491 18 0.734845 18 1.00006V19.0001C18 19.2653 17.8946 19.5196 17.7071 19.7072C17.5196 19.8947 17.2652 20.0001 17 20.0001ZM16 18.0001V2.00006H2V18.0001H16ZM4 4.00006H8V8.00006H4V4.00006ZM4 10.0001H14V12.0001H4V10.0001ZM4 14.0001H14V16.0001H4V14.0001ZM10 5.00006H14V7.00006H10V5.00006Z" fill="#03053D"/>
</svg>
