<svg width="28" height="20" viewBox="0 0 28 20" fill="none" xmlns="http://www.w3.org/2000/svg">
<path d="M14 0C21.7318 0 28 3.3575 28 7.5V12.5C28 16.6425 21.7318 20 14 20C6.40564 20 0.224 16.7612 0.00636363 12.7213L0 12.5V7.5C0 3.3575 6.26818 0 14 0ZM14 15C9.26545 15 5.07818 13.7413 2.54545 11.8125V12.5C2.54545 14.8525 7.48745 17.5 14 17.5C20.3764 17.5 25.2484 14.9625 25.4482 12.6475L25.4545 12.5L25.4558 11.8125C22.9231 13.74 18.7358 15 14 15ZM14 2.5C7.48745 2.5 2.54545 5.1475 2.54545 7.5C2.54545 9.8525 7.48745 12.5 14 12.5C20.5125 12.5 25.4545 9.8525 25.4545 7.5C25.4545 5.1475 20.5125 2.5 14 2.5Z" fill="black"/>
</svg>
