<svg width="24" height="25" viewBox="0 0 24 25" fill="none" xmlns="http://www.w3.org/2000/svg">
<g clip-path="url(#clip0_1241_3089)">
<path d="M19.0003 9.21001L13.6673 5.06201C13.1993 4.69792 12.6232 4.50024 12.0303 4.50024C11.4373 4.50024 10.8613 4.69792 10.3933 5.06201L5.05927 9.21001C4.73872 9.4593 4.47937 9.77854 4.30103 10.1434C4.12269 10.5082 4.03008 10.9089 4.03027 11.315V18.515C4.03027 19.0454 4.24099 19.5542 4.61606 19.9292C4.99113 20.3043 5.49984 20.515 6.03027 20.515H18.0303C18.5607 20.515 19.0694 20.3043 19.4445 19.9292C19.8196 19.5542 20.0303 19.0454 20.0303 18.515V11.315C20.0303 10.492 19.6503 9.71501 19.0003 9.21001Z" fill="#1D3A70" stroke="#1D3A70" stroke-width="1.5" stroke-linecap="round" stroke-linejoin="round"/>
<path d="M16.0001 15.5C13.7901 16.833 10.2081 16.833 8.00008 15.5" stroke="white" stroke-width="1.5" stroke-linecap="round" stroke-linejoin="round"/>
</g>
<defs>
<clipPath id="clip0_1241_3089">
<rect width="24" height="24" fill="white" transform="translate(0 0.5)"/>
</clipPath>
</defs>
</svg>
