<svg width="20" height="20" viewBox="0 0 20 20" fill="none" xmlns="http://www.w3.org/2000/svg">
<path d="M20 8.118C20 9.905 19.313 11.518 17.877 13.092C15.777 15.506 11.089 18.455 10.013 18.904C8.939 19.355 9.102 18.617 9.139 18.367L9.276 17.517C9.31 17.255 9.344 16.867 9.244 16.617C9.132 16.34 8.688 16.193 8.363 16.125C3.558 15.487 0 12.128 0 8.118C0 3.643 4.487 0 10 0C15.512 0 20 3.643 20 8.118ZM16.4 11.743C17.513 10.523 18 9.382 18 8.118C18 4.85 14.49 2 10 2C5.51 2 2 4.85 2 8.118C2 11.023 4.728 13.625 8.626 14.142L8.773 14.168C9.851 14.394 10.657 14.782 11.102 15.876L11.138 15.972C12.944 14.796 15.312 12.992 16.399 11.743H16.4ZM16.138 7.743C16.2716 7.75125 16.3971 7.81016 16.4888 7.90771C16.5805 8.00526 16.6316 8.13411 16.6316 8.268C16.6316 8.40189 16.5805 8.53074 16.4888 8.62829C16.3971 8.72584 16.2716 8.78475 16.138 8.793H14.675V9.731H16.137C16.2078 9.72791 16.2785 9.73918 16.3448 9.76415C16.4112 9.78911 16.4718 9.82725 16.5229 9.87626C16.5741 9.92527 16.6149 9.98413 16.6427 10.0493C16.6706 10.1145 16.6849 10.1846 16.6849 10.2555C16.6849 10.3264 16.6706 10.3965 16.6427 10.4617C16.6149 10.5269 16.5741 10.5857 16.5229 10.6347C16.4718 10.6838 16.4112 10.7219 16.3448 10.7469C16.2785 10.7718 16.2078 10.7831 16.137 10.78H14.15C14.0115 10.7789 13.8791 10.7233 13.7813 10.6252C13.6836 10.5271 13.6285 10.3945 13.628 10.256V6.28C13.628 5.993 13.863 5.755 14.153 5.755H16.141C16.2802 5.7554 16.4136 5.81109 16.5118 5.90983C16.61 6.00857 16.6649 6.14226 16.6645 6.2815C16.6641 6.42074 16.6084 6.55412 16.5097 6.65229C16.4109 6.75047 16.2772 6.8054 16.138 6.805H14.676V7.743H16.138ZM12.925 10.256C12.9247 10.3248 12.9109 10.3929 12.8843 10.4564C12.8578 10.5198 12.819 10.5775 12.7701 10.6259C12.7213 10.6744 12.6634 10.7128 12.5997 10.7389C12.536 10.765 12.4678 10.7783 12.399 10.778C12.3167 10.7798 12.2351 10.7619 12.1612 10.7257C12.0872 10.6895 12.0231 10.6361 11.974 10.57L9.938 7.806V10.256C9.928 10.388 9.86851 10.5113 9.77143 10.6013C9.67436 10.6913 9.54687 10.7413 9.4145 10.7413C9.28213 10.7413 9.15464 10.6913 9.05757 10.6013C8.96049 10.5113 8.901 10.388 8.891 10.256V6.28C8.89073 6.14173 8.94534 6.009 9.04283 5.91095C9.14032 5.8129 9.27273 5.75753 9.411 5.757C9.573 5.757 9.723 5.843 9.823 5.968L11.875 8.743V6.28C11.875 5.993 12.11 5.755 12.4 5.755C12.687 5.755 12.925 5.993 12.925 6.28V10.256ZM8.141 10.256C8.14021 10.3951 8.08447 10.5282 7.98594 10.6264C7.88741 10.7245 7.75408 10.7797 7.615 10.78C7.47636 10.7792 7.34364 10.7237 7.2457 10.6256C7.14776 10.5275 7.09253 10.3946 7.092 10.256V6.28C7.092 5.993 7.328 5.755 7.617 5.755C7.906 5.755 8.141 5.993 8.141 6.28V10.256ZM6.086 10.78H4.097C3.95818 10.7792 3.82525 10.7238 3.72699 10.6257C3.62873 10.5276 3.57305 10.3948 3.572 10.256V6.28C3.58347 6.14867 3.64375 6.02641 3.74094 5.93735C3.83813 5.84828 3.96517 5.79887 4.097 5.79887C4.22883 5.79887 4.35587 5.84828 4.45306 5.93735C4.55025 6.02641 4.61053 6.14867 4.622 6.28V9.73H6.086C6.22524 9.73 6.35878 9.78531 6.45723 9.88377C6.55569 9.98222 6.611 10.1158 6.611 10.255C6.611 10.3942 6.55569 10.5278 6.45723 10.6262C6.35878 10.7247 6.22524 10.78 6.086 10.78Z" fill="#1DAB87"/>
</svg>
