<svg width="22" height="22" viewBox="0 0 22 22" fill="none" xmlns="http://www.w3.org/2000/svg">
<path d="M8.70831 12.6044C8.70831 13.4935 9.39583 14.2085 10.2392 14.2085H11.9625C12.6958 14.2085 13.2916 13.5852 13.2916 12.806C13.2916 11.9719 12.925 11.6694 12.3842 11.4769L9.62498 10.5144C9.08415 10.3219 8.71749 10.0285 8.71749 9.18521C8.71749 8.41521 9.31331 7.78271 10.0466 7.78271H11.77C12.6133 7.78271 13.3008 8.49771 13.3008 9.38688" stroke="black" stroke-width="1.5" stroke-linecap="round" stroke-linejoin="round"/>
<path d="M11 6.875V15.125" stroke="black" stroke-width="1.5" stroke-linecap="round" stroke-linejoin="round"/>
<path d="M20.1666 11.0002C20.1666 16.0602 16.06 20.1668 11 20.1668C5.93998 20.1668 1.83331 16.0602 1.83331 11.0002C1.83331 5.94016 5.93998 1.8335 11 1.8335" stroke="black" stroke-width="1.5" stroke-linecap="round" stroke-linejoin="round"/>
<path d="M15.5833 2.75V6.41667H19.25" stroke="black" stroke-width="1.5" stroke-linecap="round" stroke-linejoin="round"/>
<path d="M20.1666 1.8335L15.5833 6.41683" stroke="black" stroke-width="1.5" stroke-linecap="round" stroke-linejoin="round"/>
</svg>
