<svg width="18" height="18" viewBox="0 0 18 18" fill="none" xmlns="http://www.w3.org/2000/svg">
<path d="M18 15.0698H0V13.3953H0.9V7.56084C0.9 3.38484 4.527 0 9 0C13.473 0 17.1 3.38484 17.1 7.56084V13.3953H18V15.0698ZM2.7 13.3953H15.3V7.56084C15.3 4.30995 12.4794 1.67442 9 1.67442C5.5206 1.67442 2.7 4.30995 2.7 7.56084V13.3953ZM6.75 15.907H11.25C11.25 16.4621 11.0129 16.9944 10.591 17.387C10.169 17.7795 9.59674 18 9 18C8.40326 18 7.83097 17.7795 7.40901 17.387C6.98705 16.9944 6.75 16.4621 6.75 15.907Z" fill="#1D3A70"/>
</svg>
