<svg width="24" height="22" viewBox="0 0 24 22" fill="none" xmlns="http://www.w3.org/2000/svg">
<path d="M1.2 0H22.8C23.1183 0 23.4235 0.128769 23.6485 0.357981C23.8736 0.587192 24 0.898069 24 1.22222V20.7778C24 21.1019 23.8736 21.4128 23.6485 21.642C23.4235 21.8712 23.1183 22 22.8 22H1.2C0.88174 22 0.576515 21.8712 0.351472 21.642C0.126428 21.4128 0 21.1019 0 20.7778V1.22222C0 0.898069 0.126428 0.587192 0.351472 0.357981C0.576515 0.128769 0.88174 0 1.2 0V0ZM21.6 9.77778H2.4V19.5556H21.6V9.77778ZM21.6 7.33333V2.44444H2.4V7.33333H21.6ZM14.4 14.6667H19.2V17.1111H14.4V14.6667Z" fill="white"/>
</svg>
