<svg width="23" height="23" viewBox="0 0 23 23" fill="none" xmlns="http://www.w3.org/2000/svg">
<path d="M0 23C0 20.6762 0.923127 18.4476 2.5663 16.8044C4.20948 15.1612 6.4381 14.2381 8.7619 14.2381C11.0857 14.2381 13.3143 15.1612 14.9575 16.8044C16.6007 18.4476 17.5238 20.6762 17.5238 23H15.3333C15.3333 21.2571 14.641 19.5857 13.4086 18.3533C12.1762 17.1209 10.5048 16.4286 8.7619 16.4286C7.01905 16.4286 5.34759 17.1209 4.1152 18.3533C2.88282 19.5857 2.19048 21.2571 2.19048 23H0ZM8.7619 13.1429C5.13119 13.1429 2.19048 10.2021 2.19048 6.57143C2.19048 2.94071 5.13119 0 8.7619 0C12.3926 0 15.3333 2.94071 15.3333 6.57143C15.3333 10.2021 12.3926 13.1429 8.7619 13.1429ZM8.7619 10.9524C11.1824 10.9524 13.1429 8.9919 13.1429 6.57143C13.1429 4.15095 11.1824 2.19048 8.7619 2.19048C6.34143 2.19048 4.38095 4.15095 4.38095 6.57143C4.38095 8.9919 6.34143 10.9524 8.7619 10.9524ZM17.8349 15.008C19.374 15.7013 20.6803 16.8242 21.5965 18.242C22.5128 19.6597 23.0002 21.3119 23 23H20.8095C20.8098 21.7339 20.4443 20.4946 19.7571 19.4313C19.0699 18.3679 18.0901 17.5256 16.9357 17.0058L17.8338 15.008H17.8349ZM17.0813 2.64281C18.1848 3.09766 19.1283 3.87007 19.7921 4.86201C20.4558 5.85396 20.81 7.02074 20.8095 8.21429C20.81 9.71732 20.2484 11.1662 19.2352 12.2763C18.2219 13.3865 16.8302 14.0776 15.3333 14.214V12.0093C16.1448 11.8931 16.8977 11.5197 17.4814 10.9441C18.0651 10.3685 18.449 9.62092 18.5765 8.81112C18.7041 8.00131 18.5686 7.17194 18.1901 6.44477C17.8116 5.71759 17.21 5.13091 16.4735 4.77086L17.0813 2.64281V2.64281Z" fill="black"/>
</svg>
