<svg width="26" height="26" viewBox="0 0 26 26" fill="none" xmlns="http://www.w3.org/2000/svg">
<path d="M20.5837 7.58341C20.5837 7.80008 20.5837 7.90841 20.5837 8.12508C20.4753 9.75008 19.717 11.1584 18.742 12.1334C17.5503 13.3251 15.9253 14.0834 14.0837 14.0834H10.7253C10.1837 14.0834 9.75033 14.5167 9.642 15.0584L8.77533 20.8001C8.667 21.2334 8.45033 21.5584 8.017 21.6667C7.90867 21.6667 7.80033 21.6667 7.692 21.6667H5.63367C4.98367 21.6667 4.442 21.1251 4.55033 20.3667L7.15033 4.87508C7.367 3.35841 8.77533 2.16675 10.292 2.16675H15.167C18.2003 2.16675 20.5837 4.55008 20.5837 7.58341Z" stroke="#5FA8EE" stroke-width="1.5" stroke-miterlimit="10"/>
<path d="M22.7503 11.9167C22.7503 13.4333 22.1003 14.7333 21.1253 15.7083C20.1503 16.6833 18.8503 17.3333 17.3337 17.3333H15.0587C14.517 17.3333 14.0837 17.6583 13.9753 18.2L13.217 22.8583C13.1087 23.4 12.6753 23.725 12.1337 23.725H8.88367C8.23367 23.725 7.692 23.075 7.80033 22.425L8.017 21.6667C8.45033 21.5583 8.77533 21.2333 8.77533 20.8L9.642 15.0583C9.75033 14.5167 10.1837 14.0833 10.7253 14.0833H14.0837C15.9253 14.0833 17.5503 13.325 18.6337 12.1333C19.717 11.05 20.367 9.64167 20.4753 8.125C21.8837 8.88333 22.7503 10.2917 22.7503 11.9167Z" stroke="#5FA8EE" stroke-width="1.5" stroke-miterlimit="10"/>
</svg>
