<svg width="18" height="18" viewBox="0 0 18 18" fill="none" xmlns="http://www.w3.org/2000/svg">
<path d="M12.5252 14.235H5.47515C5.16015 14.235 4.80765 13.9875 4.70265 13.6875L1.59765 5.00252C1.15515 3.75752 1.67265 3.37502 2.73765 4.14002L5.66265 6.23252C6.15015 6.57002 6.70515 6.39752 6.91515 5.85002L8.23515 2.33252C8.65515 1.20752 9.35265 1.20752 9.77265 2.33252L11.0926 5.85002C11.3026 6.39752 11.8577 6.57002 12.3377 6.23252L15.0826 4.27502C16.2526 3.43502 16.8151 3.86252 16.3351 5.22002L13.3051 13.7025C13.1926 13.9875 12.8402 14.235 12.5252 14.235Z" stroke="#FB923C" stroke-width="2" stroke-linecap="round" stroke-linejoin="round"/>
<path d="M4.875 16.5H13.125" stroke="#FB923C" stroke-width="2" stroke-linecap="round" stroke-linejoin="round"/>
<path d="M7.125 10.5H10.875" stroke="#FB923C" stroke-width="2" stroke-linecap="round" stroke-linejoin="round"/>
</svg>
