<svg width="24" height="25" viewBox="0 0 24 25" fill="none" xmlns="http://www.w3.org/2000/svg">
<path d="M5.62419 21.4694C6.60581 21.4694 7.40249 22.2603 7.40249 23.2347C7.40249 24.2092 6.60581 25 5.62419 25C4.64256 25 3.84588 24.2092 3.84588 23.2347C3.84588 22.2603 4.64256 21.4694 5.62419 21.4694ZM21.0362 21.4694C22.0178 21.4694 22.8145 22.2603 22.8145 23.2347C22.8145 24.2092 22.0178 25 21.0362 25C20.0545 25 19.2579 24.2092 19.2579 23.2347C19.2579 22.2603 20.0545 21.4694 21.0362 21.4694ZM1.67872 0L6.21577 4.50501V17.9389H22.8145V20.2926H5.03142C4.377 20.2926 3.84588 19.7653 3.84588 19.1157V5.47945L0 1.66525L1.67753 0H1.67872ZM18.0723 1.46283C18.7267 1.46283 19.2579 1.99007 19.2579 2.63969V4.99341H22.8062C23.4665 4.99341 24 5.53006 24 6.16438V15.591C24 16.2383 23.4665 16.762 22.8062 16.762H8.59632C7.93598 16.762 7.40249 16.2253 7.40249 15.591V6.16438C7.40249 5.51711 7.93598 4.99341 8.59632 4.99341H12.1435L12.1446 2.63969C12.1446 1.99007 12.6758 1.46283 13.3302 1.46283H18.0723ZM10.9591 7.34713H9.77356V14.4083H10.9591V7.34713ZM18.0723 7.34713H13.3302V14.4083H18.0723V7.34713ZM21.6289 7.34713H20.4434V14.4083H21.6289V7.34713ZM16.8868 3.81655H14.5157V4.99341H16.8868V3.81655Z" fill="black"/>
</svg>
